<?xml version="1.0" encoding="UTF-8"?>
<svg id="Layer_1" data-name="Layer 1" xmlns="http://www.w3.org/2000/svg" viewBox="0 0 96.91 114">
  <defs>
    <style>
      .cls-1 {
        fill: none;
        stroke-linecap: round;
        stroke-linejoin: round;
        stroke-width: 3px;
      }

      .cls-1, .cls-2 {
        stroke: #5d5d91;
      }

      .cls-3 {
        fill: #342f52;
      }

      .cls-4, .cls-2 {
        fill: #5d5d91;
      }

      .cls-2 {
        stroke-miterlimit: 10;
      }

      .cls-5 {
        fill: #12111e;
      }
    </style>
  </defs>
  <g>
    <rect class="cls-5" y="90" width="96.91" height="24" rx="3.91" ry="3.91"/>
    <g>
      <path class="cls-4" d="M32.95,94.75c-.12,0-.39.02-.81.06l-2.47.2c-.56.12-.93.27-1.11.47-.19.19-.35.63-.48,1.3l-2.18,9.05c-.21.83-.43,1.25-.67,1.25-.21,0-.38-.32-.52-.96l-1.59-6.96c-.14-.52-.44-.78-.9-.78-.16,0-.48.02-.96.06l-1.94.17c-.68.06-1.12.14-1.31.26-.25.16-.52.52-.81,1.1l-3.19,5.95c-.5.93-.83,1.39-.99,1.39-.13,0-.22-.56-.26-1.68l.06-7.6c.02-.7-.03-1.16-.13-1.39-.11-.24-.36-.35-.77-.35-.17,0-.39.02-.64.06l-2.29.32c-.6.09-.96.23-1.07.4-.08.1-.21.48-.38,1.13l-2.93,15.8h11.58l1.73-5.09c.37-1.07.67-1.6.9-1.6.25,0,.48.6.67,1.8l.77,4.89h11.64l1.63-17.48c.06-.58.09-.95.09-1.1,0-.45-.22-.67-.67-.67Z"/>
      <path class="cls-4" d="M61.67,111.08l-.67-9.08c-.06-.52-.16-.82-.3-.91-.15-.09-.54-.13-1.18-.13l-7.77.46c-.72.04-1.13.32-1.25.84l-.52,2.44c0,.54.17.8.52.78h1.83c.35.08.6.26.75.55l-.09,2.44c-.09.72-.48,1.15-1.16,1.31l-1.74.08c-1.2,0-2.11-.37-2.74-1.13-.63-.75-.9-1.72-.82-2.9.13-2.14.89-3.86,2.29-5.13,1.35-1.22,3.09-1.88,5.22-1.97.7-.04,1.31-.03,1.86.02.38.04.82.12,1.3.24.7.15,1.13.25,1.31.29.17.04.31.05.43.05.43,0,.63-.32.61-.98l-.03-1.97c0-.66-.23-1.05-.7-1.16-.15-.04-.81-.05-1.97-.03-2.82.02-5.35.32-7.6.9-2.74.69-5.09,1.79-7.05,3.3-3.15,2.4-4.89,5.58-5.22,9.55-.02.3-.03.6-.03.89,0,1.7.42,3.09,1.25,4.17h22.86c.49-.79.69-1.77.61-2.92Z"/>
      <path class="cls-4" d="M89.78,103.6c-.64-2.77-1.42-4.7-2.33-5.8-1.14-1.38-2.86-2.06-5.16-2.06-.44,0-.92.02-1.42.06l-8.15.98c-1.18.12-1.98.7-2.41,1.74l-5.9,15.48h24.01c1.29-1.31,1.94-3.21,1.94-5.7,0-1.4-.2-2.96-.58-4.7ZM80.99,108.04c-.37.73-.87,1.2-1.51,1.42-.49.15-1.74.3-3.77.43-.91.06-1.37-.2-1.37-.78,0-.19.04-.46.12-.81l1.74-7.08c.19-.72.4-1.16.62-1.33.23-.18.74-.32,1.56-.44.27-.04.52-.06.75-.06,1.16,0,1.93.64,2.32,1.92.21.67.32,1.49.32,2.43,0,1.8-.26,3.23-.78,4.3Z"/>
    </g>
  </g>
  <g>
    <path class="cls-5" d="M48.45,0h0C69.53,0,86.64,17.11,86.64,38.18v50.18H10.27v-50.18C10.27,17.11,27.38,0,48.45,0Z"/>
    <g>
      <path class="cls-3" d="M58.88,68.59c.19-8.63,1.38-5.09,7.29-6.16,7.95-1.45,3.8-9.01,3.86-13.89,10.12-36.36-52.64-36.95-43.24-.36.17,4.62-3.7,11.51,2.55,13.96,2.99,1.17,7.73-1.21,8.57,2.81.66,3.16-1.68,10.87,1.82,12.07.79.27,15.7.37,16.77.15,3.83-.81,2.3-5.55,2.37-8.57Z"/>
      <g>
        <path class="cls-2" d="M57.64,42.97c11.44-.77,10.22,15.4-.36,13.49-6.55-1.18-8.93-12.86.36-13.49Z"/>
        <path class="cls-2" d="M37.77,42.97c10.71-.89,9.16,12.32,1.64,13.49-9.98,1.55-11.31-12.69-1.64-13.49Z"/>
        <path class="cls-4" d="M48.07,54.47c1.76-.3,3.98,4.79,3.37,6.29-.79,1.96-5.49,1.98-6.02,0-.36-1.36,1.26-6.05,2.64-6.29Z"/>
      </g>
      <g>
        <line class="cls-1" x1="43.62" y1="70.4" x2="53.13" y2="70.41"/>
        <line class="cls-1" x1="43.62" y1="67.31" x2="43.62" y2="73.5"/>
        <line class="cls-1" x1="53.29" y1="67.31" x2="53.29" y2="73.5"/>
        <line class="cls-1" x1="48.46" y1="67.31" x2="48.46" y2="73.5"/>
      </g>
    </g>
  </g>
</svg>