<?xml version="1.0" encoding="UTF-8"?>
<svg id="Layer_1" data-name="Layer 1" xmlns="http://www.w3.org/2000/svg" viewBox="0 0 160 160">
  <defs>
    <style>
      .cls-1 {
        fill: #342f52;
      }

      .cls-2, .cls-3 {
        fill: #b1ca4a;
      }

      .cls-4 {
        fill: #5d5d91;
      }

      .cls-5 {
        fill: none;
        stroke: #9f9fff;
        stroke-linecap: round;
        stroke-linejoin: round;
        stroke-width: 3px;
      }

      .cls-6 {
        fill: #9f9fff;
      }

      .cls-3 {
        stroke: #5d6191;
        stroke-miterlimit: 10;
      }
    </style>
  </defs>
  <rect class="cls-4" x="31.54" y="115.55" width="96.91" height="24" rx="3.91" ry="3.91"/>
  <g>
    <path class="cls-4" d="M80,25.55h0c21.07,0,38.18,17.11,38.18,38.18v50.18H41.82v-50.18c0-21.07,17.11-38.18,38.18-38.18Z"/>
    <g>
      <path class="cls-1" d="M90.43,94.14c.19-8.63,1.38-5.09,7.29-6.16,7.95-1.45,3.8-9.01,3.86-13.89,10.12-36.36-52.64-36.95-43.24-.36.17,4.62-3.7,11.51,2.55,13.96,2.99,1.17,7.73-1.21,8.57,2.81.66,3.16-1.68,10.87,1.82,12.07.79.27,15.7.37,16.77.15,3.83-.81,2.3-5.55,2.37-8.57Z"/>
      <g>
        <path class="cls-3" d="M89.19,68.52c11.44-.77,10.22,15.4-.36,13.49-6.55-1.18-8.93-12.86.36-13.49Z"/>
        <path class="cls-3" d="M69.32,68.52c10.71-.89,9.16,12.32,1.64,13.49-9.98,1.55-11.31-12.69-1.64-13.49Z"/>
        <path class="cls-6" d="M79.61,80.01c1.76-.3,3.98,4.79,3.37,6.29-.79,1.96-5.49,1.98-6.02,0-.36-1.36,1.26-6.05,2.64-6.29Z"/>
      </g>
      <g>
        <line class="cls-5" x1="75.17" y1="95.95" x2="84.67" y2="95.96"/>
        <line class="cls-5" x1="75.17" y1="92.86" x2="75.17" y2="99.05"/>
        <line class="cls-5" x1="84.83" y1="92.86" x2="84.83" y2="99.05"/>
        <line class="cls-5" x1="80" y1="92.86" x2="80" y2="99.05"/>
      </g>
    </g>
  </g>
  <g>
    <path class="cls-2" d="M66.16,122.28l-1.65,17.69c-.14,1.12-.32,1.78-.57,1.97-.24.19-1.01.29-2.31.29l-6,.03c-1.16,0-1.9-.17-2.21-.52-.17-.21-.35-.86-.52-1.94l-.78-4.93c-.19-1.2-.42-1.8-.67-1.8-.23,0-.53.53-.9,1.6l-1.77,5.19c-.44,1.14-.85,1.84-1.22,2.09-.29.19-.96.29-2,.29l-6.44.03c-.7,0-1.16-.04-1.39-.12-.42-.17-.64-.55-.64-1.13,0-.25.03-.56.09-.93l2.99-16.13c.17-.66.3-1.03.38-1.13.12-.17.47-.31,1.07-.41l2.29-.32c.25-.04.46-.06.64-.06.41,0,.66.12.77.35s.15.7.13,1.39l-.06,7.6c.04,1.12.13,1.68.26,1.68.15,0,.48-.46.99-1.39l3.19-5.95c.29-.58.56-.95.81-1.1.19-.12.63-.2,1.3-.26l1.94-.17c.48-.04.8-.06.96-.06.46,0,.76.26.9.78l1.6,6.96c.13.64.31.96.52.96.23,0,.45-.42.67-1.25l2.18-9.05c.13-.68.29-1.11.48-1.31.18-.19.56-.35,1.12-.46l2.47-.2c.42-.04.7-.06.81-.06.44,0,.67.22.67.67,0,.15-.03.52-.09,1.1Z"/>
    <path class="cls-2" d="M94.29,136.84c.12,1.64-.35,2.93-1.39,3.86-.73.64-1.68,1.07-2.84,1.31-2.78.54-6.36.74-10.73.61-1.64-.04-2.68-.09-3.1-.14-1.84-.25-3.31-.82-4.41-1.71-1.49-1.18-2.23-2.9-2.23-5.16,0-.29,0-.59.03-.9.33-3.96,2.07-7.14,5.22-9.54,1.95-1.51,4.3-2.61,7.05-3.31,2.24-.58,4.78-.88,7.6-.9,1.16-.02,1.82,0,1.97.03.46.12.7.5.7,1.16l.03,1.97c.02.66-.18.99-.61.99-.12,0-.26-.02-.44-.06-.17-.04-.61-.13-1.3-.29-.48-.12-.92-.19-1.31-.23-.54-.06-1.16-.07-1.86-.03-2.13.1-3.87.75-5.22,1.97-1.39,1.28-2.16,2.99-2.29,5.13-.08,1.18.2,2.15.83,2.9.63.75,1.54,1.13,2.74,1.13l1.74-.09c.68-.15,1.06-.59,1.16-1.31l.09-2.44c-.16-.29-.41-.47-.75-.55h-1.83c-.35.02-.52-.24-.52-.78l.52-2.44c.12-.52.53-.8,1.25-.84l7.77-.46c.64,0,1.03.04,1.17.13.15.09.25.39.3.91l.67,9.08Z"/>
    <path class="cls-2" d="M122.89,136.84c.12,1.64-.35,2.93-1.39,3.86-.73.64-1.68,1.07-2.84,1.31-2.78.54-6.36.74-10.73.61-1.64-.04-2.68-.09-3.1-.14-1.84-.25-3.31-.82-4.41-1.71-1.49-1.18-2.23-2.9-2.23-5.16,0-.29,0-.59.03-.9.33-3.96,2.07-7.14,5.22-9.54,1.95-1.51,4.3-2.61,7.05-3.31,2.24-.58,4.78-.88,7.6-.9,1.16-.02,1.82,0,1.97.03.46.12.7.5.7,1.16l.03,1.97c.02.66-.18.99-.61.99-.12,0-.26-.02-.44-.06-.17-.04-.61-.13-1.3-.29-.48-.12-.92-.19-1.31-.23-.54-.06-1.16-.07-1.86-.03-2.13.1-3.87.75-5.22,1.97-1.39,1.28-2.16,2.99-2.29,5.13-.08,1.18.2,2.15.83,2.9.63.75,1.54,1.13,2.74,1.13l1.74-.09c.68-.15,1.06-.59,1.16-1.31l.09-2.44c-.16-.29-.41-.47-.75-.55h-1.83c-.35.02-.52-.24-.52-.78l.52-2.44c.12-.52.53-.8,1.25-.84l7.77-.46c.64,0,1.03.04,1.17.13.15.09.25.39.3.91l.67,9.08Z"/>
  </g>
</svg>